<svg width="28" height="28" viewBox="0 0 28 28" fill="none" xmlns="http://www.w3.org/2000/svg">
<path d="M3.50004 7C3.7858 7.00004 4.0616 7.10495 4.27514 7.29483C4.48868 7.48472 4.62511 7.74637 4.65854 8.03017L4.66671 8.16667V15.1667H11.6667V9.33333C11.6667 9.04758 11.7717 8.77177 11.9615 8.55823C12.1514 8.34469 12.4131 8.20827 12.6969 8.17483L12.8334 8.16667H22.1667C23.0595 8.16662 23.9185 8.50771 24.568 9.12016C25.2175 9.73262 25.6085 10.5701 25.6609 11.4613L25.6667 11.6667V21C25.6664 21.2974 25.5525 21.5834 25.3484 21.7996C25.1443 22.0158 24.8653 22.1459 24.5684 22.1634C24.2716 22.1808 23.9793 22.0842 23.7512 21.8934C23.5232 21.7025 23.3767 21.4318 23.3415 21.1365L23.3334 21V17.5H4.66671V21C4.66638 21.2974 4.55252 21.5834 4.34838 21.7996C4.14425 22.0158 3.86526 22.1459 3.56841 22.1634C3.27156 22.1808 2.97926 22.0842 2.75124 21.8934C2.52321 21.7025 2.37666 21.4318 2.34154 21.1365L2.33337 21V8.16667C2.33337 7.85725 2.45629 7.5605 2.67508 7.34171C2.89388 7.12292 3.19062 7 3.50004 7Z" fill="black"/>
<path d="M8.16671 9.33334C8.62071 9.33349 9.06481 9.46607 9.44458 9.71486C9.82435 9.96364 10.1233 10.3178 10.3048 10.734C10.4863 11.1501 10.5424 11.6102 10.4663 12.0577C10.3902 12.5053 10.1852 12.921 9.87639 13.2538C9.56758 13.5866 9.16839 13.8221 8.72774 13.9314C8.2871 14.0407 7.82413 14.0191 7.39559 13.8692C6.96705 13.7193 6.59154 13.4476 6.31509 13.0875C6.03864 12.7274 5.87326 12.2944 5.83921 11.8417L5.83337 11.6667L5.83921 11.4917C5.88336 10.9047 6.14776 10.356 6.5794 9.95576C7.01105 9.55548 7.57803 9.33316 8.16671 9.33334Z" fill="black"/>
</svg>
