<svg width="28" height="28" viewBox="0 0 28 28" fill="none" xmlns="http://www.w3.org/2000/svg">
<path d="M9.33337 10.5L12.8334 14L9.33337 17.5M15.1667 17.5H18.6667" stroke="black" stroke-width="2" stroke-linecap="round" stroke-linejoin="round"/>
<path d="M3.5 8.16667C3.5 6.92899 3.99167 5.742 4.86683 4.86683C5.742 3.99167 6.92899 3.5 8.16667 3.5H19.8333C21.071 3.5 22.258 3.99167 23.1332 4.86683C24.0083 5.742 24.5 6.92899 24.5 8.16667V19.8333C24.5 21.071 24.0083 22.258 23.1332 23.1332C22.258 24.0083 21.071 24.5 19.8333 24.5H8.16667C6.92899 24.5 5.742 24.0083 4.86683 23.1332C3.99167 22.258 3.5 21.071 3.5 19.8333V8.16667Z" stroke="black" stroke-width="2" stroke-linecap="round" stroke-linejoin="round"/>
</svg>
