<svg width="35" height="35" viewBox="0 0 35 35" fill="none" xmlns="http://www.w3.org/2000/svg">
<path d="M27.7084 7.65625H7.29171C6.61603 7.66008 5.96912 7.93019 5.49134 8.40797C5.01356 8.88575 4.74345 9.53266 4.73962 10.2083V24.7917C4.74345 25.4673 5.01356 26.1143 5.49134 26.592C5.96912 27.0698 6.61603 27.3399 7.29171 27.3438H27.7084C28.384 27.3399 29.031 27.0698 29.5087 26.592C29.9865 26.1143 30.2566 25.4673 30.2605 24.7917V10.2083C30.2566 9.53266 29.9865 8.88575 29.5087 8.40797C29.031 7.93019 28.384 7.66008 27.7084 7.65625ZM28.073 10.2083V12.6438H27.7667C27.5923 12.6648 27.4161 12.6648 27.2417 12.6438H27.0521C26.8878 12.6091 26.7268 12.5603 26.5709 12.4979H26.3959C26.1878 12.3968 26 12.2584 25.8417 12.0896C25.6254 11.876 25.4534 11.6217 25.3358 11.3414C25.2181 11.0611 25.1571 10.7603 25.1563 10.4563C25.1577 10.2539 25.1871 10.0526 25.2438 9.85833H27.7084C27.8026 9.85826 27.8932 9.89466 27.9611 9.95991C28.0291 10.0252 28.0692 10.1142 28.073 10.2083ZM7.29171 9.84375H9.75629C9.81298 10.038 9.84243 10.2393 9.84379 10.4417C9.84294 10.7457 9.78194 11.0465 9.6643 11.3268C9.54667 11.6072 9.37472 11.8614 9.15837 12.075C8.99636 12.2395 8.80932 12.3773 8.60421 12.4833H8.41462C8.272 12.5541 8.11964 12.6033 7.96254 12.6292H7.75837C7.58401 12.6502 7.40774 12.6502 7.23337 12.6292H6.92712V10.2083C6.92712 10.1116 6.96553 10.0189 7.03391 9.95053C7.10228 9.88216 7.19501 9.84375 7.29171 9.84375ZM6.92712 24.7917V22.3563H7.23337C7.40774 22.3352 7.58401 22.3352 7.75837 22.3563H7.94796C8.11414 22.3833 8.27598 22.4323 8.42921 22.5021H8.60421C8.80932 22.6081 8.99636 22.7459 9.15837 22.9104C9.37472 23.124 9.54667 23.3783 9.6643 23.6586C9.78194 23.9389 9.84294 24.2397 9.84379 24.5438C9.84243 24.7461 9.81298 24.9474 9.75629 25.1417H7.29171C7.19749 25.1417 7.1069 25.1053 7.03893 25.0401C6.97096 24.9748 6.93089 24.8858 6.92712 24.7917ZM11.9875 25.1563C12.0012 24.9572 12.0012 24.7574 11.9875 24.5583C11.993 23.9662 11.8782 23.3791 11.6501 22.8326C11.422 22.2862 11.0853 21.7917 10.6605 21.3792C10.446 21.1615 10.2061 20.9705 9.94587 20.8104L9.69796 20.65C9.52826 20.5608 9.35288 20.4829 9.17296 20.4167L8.88129 20.3C8.62848 20.2255 8.36997 20.1718 8.10837 20.1396C7.95803 20.125 7.80663 20.125 7.65629 20.1396H6.92712V14.9042H8.16671C8.36427 14.869 8.55917 14.8203 8.75004 14.7583L9.07087 14.6563C9.29368 14.58 9.50857 14.4823 9.71254 14.3646L9.94587 14.2333C10.2182 14.0546 10.4722 13.8494 10.7042 13.6208C11.1291 13.2083 11.4657 12.7138 11.6938 12.1674C11.922 11.6209 12.0368 11.0338 12.0313 10.4417C12.0449 10.2426 12.0449 10.0428 12.0313 9.84375H23.0563C23.0427 10.0428 23.0427 10.2426 23.0563 10.4417C23.0508 11.0338 23.1656 11.6209 23.3937 12.1674C23.6219 12.7138 23.9585 13.2083 24.3834 13.6208C24.6125 13.8526 24.8669 14.0581 25.1417 14.2333L25.375 14.3646C25.579 14.4823 25.7939 14.58 26.0167 14.6563L26.3375 14.7583C26.5335 14.816 26.7333 14.8598 26.9355 14.8896H28.1605V20.0813H27.4313C27.2809 20.0666 27.1295 20.0666 26.9792 20.0813C26.7176 20.1135 26.4591 20.1671 26.2063 20.2417L25.9146 20.3583C25.719 20.4321 25.5289 20.5199 25.3459 20.6208L25.098 20.7813C24.8377 20.9413 24.5978 21.1323 24.3834 21.35C23.9585 21.7625 23.6219 22.257 23.3937 22.8035C23.1656 23.3499 23.0508 23.937 23.0563 24.5292C23.0427 24.7282 23.0427 24.928 23.0563 25.1271L11.9875 25.1563ZM27.7084 25.1563H25.2438C25.1871 24.962 25.1577 24.7607 25.1563 24.5583C25.1571 24.2543 25.2181 23.9535 25.3358 23.6732C25.4534 23.3928 25.6254 23.1386 25.8417 22.925C26 22.7562 26.1878 22.6178 26.3959 22.5167H26.5709C26.7268 22.4543 26.8878 22.4055 27.0521 22.3708H27.2417C27.4161 22.3498 27.5923 22.3498 27.7667 22.3708H28.073V24.7917C28.073 24.8884 28.0345 24.9811 27.9662 25.0495C27.8978 25.1178 27.8051 25.1563 27.7084 25.1563Z" fill="black"/>
<path d="M17.5 12.3958C16.4905 12.3958 15.5037 12.6952 14.6643 13.256C13.8249 13.8169 13.1707 14.614 12.7844 15.5467C12.3981 16.4794 12.297 17.5056 12.494 18.4958C12.6909 19.4859 13.177 20.3953 13.8909 21.1092C14.6047 21.823 15.5142 22.3091 16.5043 22.5061C17.4944 22.703 18.5207 22.6019 19.4533 22.2156C20.386 21.8293 21.1831 21.1751 21.744 20.3357C22.3049 19.4963 22.6042 18.5095 22.6042 17.5C22.6042 16.1463 22.0665 14.848 21.1092 13.8908C20.152 12.9336 18.8538 12.3958 17.5 12.3958ZM17.5 20.4166C16.9232 20.4166 16.3593 20.2456 15.8796 19.9251C15.4 19.6046 15.0262 19.1491 14.8054 18.6161C14.5846 18.0832 14.5269 17.4967 14.6394 16.931C14.752 16.3652 15.0297 15.8455 15.4376 15.4376C15.8456 15.0297 16.3653 14.7519 16.931 14.6394C17.4968 14.5268 18.0833 14.5846 18.6162 14.8053C19.1492 15.0261 19.6047 15.3999 19.9252 15.8796C20.2456 16.3592 20.4167 16.9231 20.4167 17.5C20.4167 18.2735 20.1094 19.0154 19.5624 19.5624C19.0155 20.1094 18.2736 20.4166 17.5 20.4166Z" fill="black"/>
</svg>
